<svg width="187" height="83" viewBox="0 0 187 83" fill="none" xmlns="http://www.w3.org/2000/svg">
<path d="M91.274 41.42C89.034 41.42 87.326 40.79 86.15 39.53C84.974 38.242 84.386 36.408 84.386 34.028V18.572C84.386 16.192 84.974 14.372 86.15 13.112C87.326 11.824 89.034 11.18 91.274 11.18C93.514 11.18 95.222 11.824 96.398 13.112C97.574 14.372 98.162 16.192 98.162 18.572V21.092H93.794V18.278C93.794 16.346 92.996 15.38 91.4 15.38C89.804 15.38 89.006 16.346 89.006 18.278V34.364C89.006 36.268 89.804 37.22 91.4 37.22C92.996 37.22 93.794 36.268 93.794 34.364V28.61H91.484V24.41H98.162V34.028C98.162 36.408 97.574 38.242 96.398 39.53C95.222 40.79 93.514 41.42 91.274 41.42ZM106.378 11.6H112.636L117.424 41H112.804L111.964 35.162V35.246H106.714L105.874 41H101.59L106.378 11.6ZM111.418 31.256L109.36 16.724H109.276L107.26 31.256H111.418ZM121.346 11.6H127.94L130.88 32.642H130.964L133.904 11.6H140.498V41H136.13V18.74H136.046L132.686 41H128.822L125.462 18.74H125.378V41H121.346V11.6ZM145.625 11.6H150.245V41H145.625V11.6ZM155.385 11.6H167.607V15.8H160.005V23.99H165.969V28.19H160.005V41H155.385V11.6ZM175.745 28.484L170.159 11.6H175.073L178.223 22.394H178.307L181.457 11.6H185.951L180.365 28.484V41H175.745V28.484Z" fill="black"/>
<path d="M87.54 52H85.24V50H92.04V52H89.74V64H87.54V52ZM93.1052 50H95.3052V55.7H97.6652V50H99.8652V64H97.6652V57.7H95.3052V64H93.1052V50ZM101.504 50H107.504V52H103.704V55.7H106.724V57.7H103.704V62H107.504V64H101.504V50ZM115.092 64.2C114.026 64.2 113.212 63.9 112.652 63.3C112.092 62.6867 111.812 61.8133 111.812 60.68V53.32C111.812 52.1867 112.092 51.32 112.652 50.72C113.212 50.1067 114.026 49.8 115.092 49.8C116.159 49.8 116.972 50.1067 117.532 50.72C118.092 51.32 118.372 52.1867 118.372 53.32V54.52H116.292V53.18C116.292 52.26 115.912 51.8 115.152 51.8C114.392 51.8 114.012 52.26 114.012 53.18V60.84C114.012 61.7467 114.392 62.2 115.152 62.2C115.912 62.2 116.292 61.7467 116.292 60.84V58.1H115.192V56.1H118.372V60.68C118.372 61.8133 118.092 62.6867 117.532 63.3C116.972 63.9 116.159 64.2 115.092 64.2ZM121.485 50H124.465L126.745 64H124.545L124.145 61.22V61.26H121.645L121.245 64H119.205L121.485 50ZM123.885 59.36L122.905 52.44H122.865L121.905 59.36H123.885ZM127.812 50H130.952L132.352 60.02H132.392L133.792 50H136.932V64H134.852V53.4H134.812L133.212 64H131.372L129.772 53.4H129.732V64H127.812V50ZM138.574 50H144.574V52H140.774V55.7H143.794V57.7H140.774V62H144.574V64H138.574V50ZM151.903 64.2C150.836 64.2 150.029 63.9 149.483 63.3C148.936 62.6867 148.663 61.8133 148.663 60.68V59.88H150.743V60.84C150.743 61.7467 151.123 62.2 151.883 62.2C152.256 62.2 152.536 62.0933 152.723 61.88C152.923 61.6533 153.023 61.2933 153.023 60.8C153.023 60.2133 152.889 59.7 152.623 59.26C152.356 58.8067 151.863 58.2667 151.143 57.64C150.236 56.84 149.603 56.12 149.243 55.48C148.883 54.8267 148.703 54.0933 148.703 53.28C148.703 52.1733 148.983 51.32 149.543 50.72C150.103 50.1067 150.916 49.8 151.983 49.8C153.036 49.8 153.829 50.1067 154.363 50.72C154.909 51.32 155.183 52.1867 155.183 53.32V53.9H153.103V53.18C153.103 52.7 153.009 52.3533 152.823 52.14C152.636 51.9133 152.363 51.8 152.003 51.8C151.269 51.8 150.903 52.2467 150.903 53.14C150.903 53.6467 151.036 54.12 151.303 54.56C151.583 55 152.083 55.5333 152.803 56.16C153.723 56.96 154.356 57.6867 154.703 58.34C155.049 58.9933 155.223 59.76 155.223 60.64C155.223 61.7867 154.936 62.6667 154.363 63.28C153.803 63.8933 152.983 64.2 151.903 64.2ZM158.204 52H155.904V50H162.704V52H160.404V64H158.204V52ZM166.871 64.2C165.791 64.2 164.964 63.8933 164.391 63.28C163.818 62.6667 163.531 61.8 163.531 60.68V53.32C163.531 52.2 163.818 51.3333 164.391 50.72C164.964 50.1067 165.791 49.8 166.871 49.8C167.951 49.8 168.778 50.1067 169.351 50.72C169.924 51.3333 170.211 52.2 170.211 53.32V60.68C170.211 61.8 169.924 62.6667 169.351 63.28C168.778 63.8933 167.951 64.2 166.871 64.2ZM166.871 62.2C167.631 62.2 168.011 61.74 168.011 60.82V53.18C168.011 52.26 167.631 51.8 166.871 51.8C166.111 51.8 165.731 52.26 165.731 53.18V60.82C165.731 61.74 166.111 62.2 166.871 62.2ZM171.699 50H174.959C176.092 50 176.919 50.2667 177.439 50.8C177.959 51.32 178.219 52.1267 178.219 53.22V54.08C178.219 55.5333 177.739 56.4533 176.779 56.84V56.88C177.312 57.04 177.686 57.3667 177.899 57.86C178.126 58.3533 178.239 59.0133 178.239 59.84V62.3C178.239 62.7 178.252 63.0267 178.279 63.28C178.306 63.52 178.372 63.76 178.479 64H176.239C176.159 63.7733 176.106 63.56 176.079 63.36C176.052 63.16 176.039 62.8 176.039 62.28V59.72C176.039 59.08 175.932 58.6333 175.719 58.38C175.519 58.1267 175.166 58 174.659 58H173.899V64H171.699V50ZM174.699 56C175.139 56 175.466 55.8867 175.679 55.66C175.906 55.4333 176.019 55.0533 176.019 54.52V53.44C176.019 52.9333 175.926 52.5667 175.739 52.34C175.566 52.1133 175.286 52 174.899 52H173.899V56H174.699ZM179.765 50H185.765V52H181.965V55.7H184.985V57.7H181.965V62H185.765V64H179.765V50Z" fill="black" fill-opacity="0.7"/>
<circle cx="47" cy="56" r="12" stroke="#00A2E9" stroke-width="8"/>
<rect x="44" y="4" width="22" height="22" stroke="#FFCC00" stroke-width="8"/>
<path d="M7.33975 72L16 57L24.6603 72H7.33975Z" stroke="#FF3399" stroke-width="6"/>
<path d="M16.5 10L16.5 42" stroke="#4EE6B3" stroke-width="7"/>
<line x1="32" y1="26.5" y2="26.5" stroke="#4EE6B3" stroke-width="7"/>
</svg>
